<?xml version="1.0" encoding="UTF-8"?>
<!DOCTYPE svg PUBLIC "-//W3C//DTD SVG 1.1//EN" "http://www.w3.org/Graphics/SVG/1.1/DTD/svg11.dtd">
<!-- Creator: CorelDRAW 2020 (64 Bit) -->
<svg xmlns="http://www.w3.org/2000/svg" xml:space="preserve" width="500px" height="500px" version="1.1" style="shape-rendering:geometricPrecision; text-rendering:geometricPrecision; image-rendering:optimizeQuality; fill-rule:evenodd; clip-rule:evenodd"
viewBox="0 0 500 500"
 xmlns:xlink="http://www.w3.org/1999/xlink"
 xmlns:xodm="http://www.corel.com/coreldraw/odm/2003">
 <defs>
  <style type="text/css">
   <![CDATA[
    .fil1 {fill:#FEFEFE}
    .fil2 {fill:#FEFEFE;fill-rule:nonzero}
    .fil0 {fill:white;fill-rule:nonzero}
   ]]>
  </style>
 </defs>
 <g id="Camada_x0020_1">
  <metadata id="CorelCorpID_0Corel-Layer"/>
  <g id="_2117325229328">
   <path class="fil0" d="M500 243.568c0,134.51 -109.89,243.552 -245.476,243.552 -43.027,0 -83.444,-11.005 -118.629,-30.277l-135.895 43.157 44.298 -130.71c-22.336,-36.685 -35.2,-79.76 -35.2,-125.738 0.016,-134.51 109.873,-243.552 245.459,-243.552 135.569,0.032 245.443,109.059 245.443,243.568zm-245.492 -204.732c-113.787,0 -206.346,91.858 -206.346,204.781 0,44.804 14.609,86.282 39.31,120.031l-25.761 76.027 79.271 -25.19c32.608,21.391 71.624,33.847 113.526,33.847 113.787,0 206.378,-91.841 206.378,-204.764 0.033,-112.874 -92.575,-204.732 -206.378,-204.732z" data-original="#000000" data-old_color="#000000"/>
   <g>
    <g>
     <path class="fil1" d="M349.725 337.748c54.595,0 98.853,-44.258 98.853,-98.853 0,-54.595 -44.258,-98.852 -98.853,-98.852 -54.595,0 -98.852,44.257 -98.852,98.852 0,54.595 44.257,98.853 98.852,98.853zm0 -33.545c36.069,0 65.307,-29.239 65.307,-65.308 0,-36.068 -29.238,-65.307 -65.307,-65.307 -36.068,0 -65.307,29.239 -65.307,65.307 0,36.069 29.239,65.308 65.307,65.308z"/>
     <path class="fil1" d="M159.238 337.748c54.595,0 98.853,-44.258 98.853,-98.853 0,-54.595 -44.258,-98.852 -98.853,-98.852 -54.595,0 -98.852,44.257 -98.852,98.852 0,54.595 44.257,98.853 98.852,98.853zm0 -33.545c36.069,0 65.307,-29.239 65.307,-65.308 0,-36.068 -29.238,-65.307 -65.307,-65.307 -36.068,0 -65.307,29.239 -65.307,65.307 0,36.069 29.239,65.308 65.307,65.308z"/>
     <path class="fil1" d="M159.238 276.49c20.763,0 37.595,-16.831 37.595,-37.595 0,-20.763 -16.832,-37.594 -37.595,-37.594 -5.372,0 -10.481,1.129 -15.103,3.16 3.034,2.518 4.967,6.318 4.967,10.569 0,7.582 -6.147,13.729 -13.729,13.729 -4.252,0 -8.051,-1.933 -10.569,-4.967 -2.031,4.622 -3.16,9.731 -3.16,15.103 0,20.764 16.831,37.595 37.594,37.595z"/>
     <path class="fil1" d="M349.725 276.49c20.763,0 37.595,-16.831 37.595,-37.595 0,-20.763 -16.832,-37.594 -37.595,-37.594 -5.372,0 -10.48,1.129 -15.103,3.16 3.034,2.518 4.967,6.318 4.967,10.569 0,7.582 -6.147,13.729 -13.729,13.729 -4.252,0 -8.051,-1.933 -10.569,-4.967 -2.031,4.622 -3.16,9.731 -3.16,15.103 0,20.764 16.831,37.595 37.594,37.595z"/>
    </g>
    <path class="fil2" d="M492.938 69.381c-0.685,31.071 -25.792,57.068 -54.143,69.797 -28.352,12.729 -60.009,15.285 -90.648,20.489 -30.64,5.204 -62.477,41.982 -84.408,64.003 -29.174,-33.283 -79.415,-62.73 -123.445,-67.227 -44.03,-4.499 -109.609,-21.293 -124.268,-74.484 152.344,51.562 326.763,45.068 476.912,-12.578z"/>
    <polygon class="fil1" points="254.482,365.615 278.405,320.663 287.611,297.237 254.482,259.785 221.125,296.658 230.558,320.663 "/>
   </g>
  </g>
 </g>
</svg>
